<svg xmlns="http://www.w3.org/2000/svg" viewBox="0 0 128 128" role="img" aria-label="Readomi 液态玻璃图标">
<defs>
<linearGradient id="tile" x1="0" y1="0" x2="1" y2="1"><stop stop-color="#f6e8e1" stop-opacity=".9"/><stop offset=".3" stop-color="#e9ab91" stop-opacity=".82"/><stop offset=".67" stop-color="#b6533e" stop-opacity=".94"/><stop offset="1" stop-color="#e9ab91" stop-opacity=".88"/></linearGradient>
<linearGradient id="rim" x1="0" y1="0" x2=".8" y2="1"><stop stop-color="#fff"/><stop offset=".42" stop-color="#fff" stop-opacity=".2"/><stop offset=".7" stop-color="#b6533e" stop-opacity=".36"/><stop offset="1" stop-color="#fff" stop-opacity=".86"/></linearGradient>
<linearGradient id="page" x1="0" y1="0" x2=".9" y2="1"><stop stop-color="#fffef9"/><stop offset=".53" stop-color="#fff8ec"/><stop offset="1" stop-color="#f9e6d4"/></linearGradient>
<linearGradient id="fold" x1="0" y1="0" x2="1" y2="1"><stop stop-color="#e9ab91"/><stop offset="1" stop-color="#f6e8e1"/></linearGradient>
<radialGradient id="shine" cx=".14" cy=".04" r=".95"><stop stop-color="#fff" stop-opacity=".75"/><stop offset=".45" stop-color="#fff" stop-opacity=".06"/><stop offset="1" stop-color="#fff" stop-opacity="0"/></radialGradient>
<filter id="shadow" x="-20%" y="-20%" width="140%" height="150%"><feDropShadow dx="0" dy="1" stdDeviation="1" flood-color="#b6533e" flood-opacity=".24"/></filter>
</defs>
<rect x="4" y="4" width="120" height="120" rx="24" fill="url(#tile)"/>
<rect x="4.75" y="4.75" width="118.5" height="118.5" rx="23.25" fill="none" stroke="url(#rim)" stroke-width="1.5"/>
<rect x="7" y="7" width="114" height="114" rx="21" fill="url(#shine)" stroke="#fff" stroke-opacity=".22"/>
<g filter="url(#shadow)"><path d="M17 53C17 23 61 23 62 51V94C48 80 32 80 20 92Q17 95 17 90Z" fill="url(#page)"/>
<path d="M64 52C64 27 95 23 109 43V90Q109 95 106 92C92 80 79 80 64 94Z" fill="url(#fold)"/>
<path d="M64 52C64 28 95 23 104 40C103 31 109 29 111 38C117 60 81 67 68 85C79 72 97 73 106 84Q110 88 109 92Q109 95 106 92C92 80 79 80 64 94Z" fill="url(#page)"/></g>
<path d="M28 7H99C111 7 121 17 121 29" stroke="#fff" stroke-width="1.2" stroke-opacity=".75" fill="none"/>
</svg>